# xmcd
#
# Track frame offsets: 
#        150
#        15962
#        40460
#        59730
#        87587
#        109767
#        131075
#        151060
#        164025
#        179937
#        198975
#        225327
#        242362
#        267092
#        281992
#        294045
#        316012
#
# Disc length: 4327 seconds
#
# Revision: 6
# Processed by: cddbd v1.5.2PL0 Copyright (c) Steve Scherf et al.
# Submitted via: ExactAudioCopyFreeDBPlugin 1.0
#
DISCID=ed10e511
DTITLE=Lambchop - I Hope You're Sitting Down
DYEAR=1994
DGENRE=Country
TTITLE0=Begin
TTITLE1=Betweemus
TTITLE2=Soaky In The Pooper
TTITLE3=Because You Are The Very Air He Breathes
TTITLE4=Under The Same Moon
TTITLE5=I Will Drive Slowly
TTITLE6=Oh, What A Disappointment
TTITLE7=Hellmouth
TTITLE8=Bon Soir, Bon Soir
TTITLE9=Hickey
TTITLE10=Breathe Deep
TTITLE11=So I Hear You're Moving
TTITLE12=Let's Go Bowling
TTITLE13=What Was He Wearing?
TTITLE14=Cowboy On The Moon
TTITLE15=Or Thousands Of Prices
TTITLE16=The Pack-Up Song
EXTD=YEAR: 1994
EXTT0=
EXTT1=
EXTT2=
EXTT3=
EXTT4=
EXTT5=
EXTT6=
EXTT7=
EXTT8=
EXTT9=
EXTT10=
EXTT11=
EXTT12=
EXTT13=
EXTT14=
EXTT15=
EXTT16=
PLAYORDER=
